<svg width="19" height="21" viewBox="0 0 19 21" fill="none" xmlns="http://www.w3.org/2000/svg">
<path fill-rule="evenodd" clip-rule="evenodd" d="M13.2769 0.0616165C12.9104 0.141064 12.5788 0.315175 12.4615 0.489738C12.3748 0.618609 12.3675 0.663808 12.3892 0.931722C12.4134 1.22798 12.4127 1.23052 12.3011 1.27502C12.0022 1.39438 11.5202 1.64859 11.4154 1.74215L11.2983 1.84678L11.4032 1.99883C11.5351 2.18979 11.6562 2.46374 11.7182 2.71127L11.7661 2.90252L11.998 2.81713C12.1721 2.75298 12.3319 2.73095 12.64 2.72862C13.0018 2.72591 13.0775 2.73834 13.2829 2.83444C13.7372 3.04694 14.063 3.46132 14.1213 3.90064C14.1464 4.09013 14.1518 4.09686 14.255 4.06782C14.3142 4.05121 14.5048 4.03894 14.6786 4.04058L14.9945 4.04358L15.075 3.85601C15.2474 3.45431 15.2711 3.08463 15.1548 2.6148C15.1104 2.4356 15.1144 2.41161 15.2128 2.26284C15.2709 2.17507 15.3828 1.97549 15.4614 1.81938C15.9464 0.856294 15.7974 0.262142 15.0205 0.0608782C14.7058 -0.0206199 13.6543 -0.0202097 13.2769 0.0616165ZM14.043 0.763517C14.0686 0.830454 13.7934 2.03849 13.7199 2.18163C13.673 2.27293 13.5275 2.2749 13.4929 2.18471C13.4672 2.11777 13.7424 0.909738 13.8159 0.766593C13.8629 0.675292 14.0083 0.673323 14.043 0.763517ZM9.42025 1.70655C9.1783 1.79104 8.97707 1.93853 8.81399 2.15095C8.65998 2.3516 8.5179 2.73465 8.5179 2.94924C8.5179 3.03164 8.49309 3.13299 8.46278 3.17442C8.40039 3.25973 8.34531 3.25259 7.96419 3.10953C7.7788 3.03997 7.62708 3.01655 7.34896 3.0147C7.02469 3.01249 6.95135 3.02619 6.7457 3.12717C5.94594 3.51989 5.90672 4.5842 6.65952 5.46469C6.79057 5.61792 6.98695 5.84863 7.09593 5.97738C7.51244 6.46932 7.86264 7.1604 8.20938 8.17451L8.41778 8.78404L8.61006 8.85705C8.86346 8.95319 9.16496 9.17836 9.31771 9.38545C9.38538 9.47716 9.45224 9.55267 9.46627 9.55321C9.48029 9.55374 9.7567 9.22656 10.0805 8.82616C10.7462 8.00306 10.9552 7.7883 11.2831 7.59049C11.7598 7.30292 12.5252 7.10248 12.886 7.17073C12.9988 7.19206 13.0962 7.20436 13.1025 7.19805C13.1089 7.19173 13.0858 7.02472 13.0513 6.82694C12.9716 6.36986 12.9709 5.74302 13.0497 5.44045C13.1471 5.06647 13.3467 4.7166 13.6093 4.45968C13.8203 4.25321 13.8499 4.20477 13.8499 4.06642C13.8499 3.67571 13.5816 3.27683 13.2001 3.10046C12.9295 2.97541 12.3709 2.98012 12.0247 3.11039C11.535 3.29467 11.5034 3.28171 11.458 2.87779C11.3994 2.35763 11.0152 1.85166 10.5694 1.7077C10.2912 1.61783 9.67602 1.61722 9.42025 1.70655ZM17.1448 3.19332C16.7641 3.28918 16.3281 3.70647 15.9423 4.34426C15.8138 4.55672 15.6915 4.73621 15.6706 4.74318C15.6497 4.75015 15.5345 4.68219 15.4147 4.59216C14.8924 4.19972 14.295 4.21392 13.8403 4.62957C13.5968 4.85204 13.4181 5.14698 13.3329 5.46698C13.25 5.77833 13.2613 6.45575 13.3571 6.9262L13.4385 7.32573L13.8736 7.76078C14.3038 8.19095 14.3119 8.19657 14.6022 8.26458C14.9993 8.35756 15.8268 8.39021 16.1108 8.32409C16.4429 8.24682 16.7839 8.04863 17.0094 7.80184C17.4266 7.34534 17.4413 6.74884 17.0483 6.22573C16.9583 6.10592 16.8903 5.99075 16.8973 5.96983C16.9042 5.94892 17.0843 5.8264 17.2974 5.69761C18.4983 4.97193 18.7757 4.22392 18.0961 3.54434C17.7977 3.24586 17.4482 3.11695 17.1448 3.19332ZM17.3932 4.31444C17.4321 4.37626 17.2368 4.58798 15.9825 5.84301C15.1818 6.64426 14.501 7.29489 14.4696 7.28882C14.4381 7.28279 14.3921 7.24554 14.3672 7.20605C14.3283 7.14424 14.5237 6.93251 15.7779 5.67748C16.5786 4.87624 17.2594 4.22561 17.2909 4.23168C17.3223 4.2377 17.3683 4.27495 17.3932 4.31444ZM8.46577 4.98095C8.82503 5.67949 8.86588 5.84228 8.68196 5.84228C8.59087 5.84228 8.54181 5.76894 8.24285 5.18603C7.8548 4.42941 7.82105 4.28073 8.04454 4.31272C8.10717 4.32166 8.21332 4.49007 8.46577 4.98095ZM11.4193 4.42724C11.4248 4.48474 11.3527 4.67395 11.2552 4.8579C11.1089 5.13418 11.0652 5.18603 10.9788 5.18603C10.8231 5.18603 10.8295 5.05186 11.0017 4.70778C11.1899 4.33175 11.218 4.29734 11.3239 4.31248C11.3812 4.32064 11.4127 4.35858 11.4193 4.42724ZM4.90935 7.51366C4.91009 7.79716 4.97382 8.36556 5.07722 9.01073L5.12484 9.3081H5.31511H5.50539L5.5085 8.86718C5.51174 8.41248 5.59377 7.91652 5.73224 7.51399C5.77547 7.38832 5.81087 7.26991 5.81087 7.25088C5.81087 7.23189 5.60784 7.2163 5.3597 7.2163H4.90853L4.90935 7.51366ZM12.5579 7.44779C12.1038 7.54611 11.8678 7.61239 11.6821 7.69364C11.4268 7.80541 11.0609 8.0634 11.0609 8.13165C11.0609 8.15753 11.2382 8.3567 11.4549 8.5742C11.7782 8.8988 11.844 8.98539 11.8213 9.05688C11.8061 9.10482 11.7622 9.14403 11.7238 9.14403C11.6854 9.14403 11.4794 8.96869 11.266 8.75439C11.0525 8.54008 10.8591 8.36576 10.8361 8.36703C10.7929 8.36941 10.0295 9.30572 10.0009 9.39136C9.99205 9.41785 10.0911 9.54689 10.2209 9.6781C10.4588 9.91845 10.4885 10.0168 10.3407 10.0735C10.2959 10.0907 10.1977 10.0223 10.0332 9.85955C9.90029 9.72801 9.78385 9.62859 9.7745 9.63856C9.76511 9.64857 9.61634 9.83105 9.44387 10.0441L9.13035 10.4314L9.4451 10.748C9.66396 10.9682 9.75214 11.0848 9.73455 11.1307C9.67454 11.2871 9.57848 11.2485 9.27341 10.9454C9.0096 10.6834 8.96206 10.6516 8.91301 10.7039C8.7891 10.8361 7.77962 12.0925 7.77962 12.1146C7.77962 12.1276 8.65428 12.1382 9.72335 12.1382H11.667L12.5487 11.4218C13.5437 10.6133 13.7165 10.4362 13.9095 10.0273C14.2019 9.40768 14.2657 8.81127 14.0802 8.432C13.9494 8.16491 13.434 7.65484 13.1871 7.54828C12.9983 7.46682 12.6943 7.41826 12.5579 7.44779ZM14.4398 8.61551C14.4976 8.89872 14.4957 8.99933 14.4264 9.33349C14.3291 9.80225 14.2152 10.0992 14.0124 10.413C13.8026 10.7375 13.6398 10.8932 12.8074 11.5649L12.1225 12.1177L14.5052 12.1282C17.1446 12.14 16.9392 12.1591 17.3443 11.8644C17.8211 11.5176 17.8184 11.1815 17.3366 10.8841C17.2006 10.8001 17.0902 10.7024 17.0902 10.666C17.0902 10.6298 17.1289 10.4986 17.1762 10.3745C17.3418 9.9399 17.1926 9.59283 16.8151 9.53458C16.4529 9.47868 16.4532 9.47897 16.4657 9.17094C16.4719 9.01865 16.4569 8.81919 16.4322 8.72768C16.3894 8.56867 16.3817 8.56243 16.2569 8.58712C15.8111 8.67535 15.1197 8.65816 14.5553 8.54488C14.4289 8.51949 14.4211 8.52425 14.4398 8.61551ZM2.58171 9.0232C2.17352 9.10376 1.76657 9.38964 1.56645 9.73638C1.33012 10.1459 1.18242 11.0662 1.23857 11.7793L1.26683 12.1382H4.3298H7.39276L8.33071 10.984L9.26865 9.82982L9.19232 9.68811C9.07805 9.47593 8.74882 9.20113 8.48517 9.09789C8.29355 9.02287 8.16611 9.00581 7.77962 9.0036C7.2038 9.00023 6.97977 9.05179 6.44181 9.31142C5.93507 9.55599 5.69049 9.61206 5.25002 9.58458C4.94905 9.5658 4.85553 9.53791 4.40756 9.3332C3.70878 9.01389 3.12824 8.91533 2.58171 9.0232ZM16.0033 10.3335C16.0033 10.4198 15.9514 10.4635 15.6751 10.6099C15.3021 10.8076 15.1419 10.8231 15.1419 10.6616C15.1419 10.5753 15.1938 10.5316 15.4701 10.3852C15.8431 10.1875 16.0033 10.172 16.0033 10.3335ZM0.227865 12.5279C0.0511692 12.624 -0.0236433 12.8361 0.00650318 13.1556C0.307927 16.3514 1.28188 18.6592 2.81542 19.8111L3.08333 20.0124L8.70662 20.0128L14.3299 20.0132L14.6083 19.8024C16.0996 18.6735 17.0945 16.3772 17.3811 13.4029C17.4367 12.8261 17.4126 12.6964 17.2227 12.5469C17.1215 12.4674 17.0111 12.4663 8.7277 12.4679C1.54943 12.4693 0.31974 12.478 0.227865 12.5279Z" fill="#FF7043"/>
</svg>
