<svg width="18" height="17" viewBox="0 0 18 17" fill="none" xmlns="http://www.w3.org/2000/svg">
<path fill-rule="evenodd" clip-rule="evenodd" d="M3.33102 0.0817187C3.01133 0.239961 3.00781 0.256562 3.00781 1.60152C3.00781 2.95363 3.01043 2.96547 3.34281 3.12641C3.56273 3.23285 3.81004 3.20707 3.98559 3.05934C4.21531 2.86605 4.21875 2.84457 4.21875 1.59902C4.21875 0.500195 4.21574 0.454453 4.13344 0.308008C4.03922 0.140391 3.8009 -7.80924e-05 3.6107 3.25726e-08C3.54766 3.25726e-08 3.42184 0.0367969 3.33102 0.0817187ZM13.5322 0.0788282C13.4331 0.127891 13.3409 0.214727 13.288 0.30875C13.2063 0.454258 13.2031 0.501836 13.2031 1.59902C13.2031 2.84457 13.2066 2.86605 13.4363 3.05934C13.6102 3.2057 13.8599 3.23297 14.0708 3.12859C14.3986 2.96633 14.393 2.99148 14.4059 1.62828C14.4169 0.46707 14.4144 0.419922 14.3361 0.293164C14.2452 0.146172 13.9809 -3.90299e-05 13.806 3.25726e-08C13.743 3.25726e-08 13.6198 0.0355079 13.5322 0.0788282ZM0.692109 1.93109C0.370742 2.04574 0.120352 2.29469 0.0381641 2.58121C0.0163672 2.65715 0 3.33914 0 4.16961V5.62496H8.71094H17.4219V4.13934C17.4219 2.53879 17.4209 2.52988 17.2092 2.25238C17.1545 2.18063 17.0173 2.07074 16.9045 2.0082L16.6992 1.89449L15.8544 1.88203L15.0096 1.86961L14.9922 2.35078C14.9705 2.95086 14.8945 3.15223 14.5818 3.43801C14.1018 3.87672 13.3895 3.84148 12.9521 3.35738C12.7038 3.08254 12.644 2.89906 12.6247 2.35348L12.6078 1.87496H8.71094H4.8141L4.79719 2.35348C4.77789 2.89906 4.71809 3.08254 4.46977 3.35738C4.03141 3.84262 3.31816 3.87496 2.83305 3.4316C2.52559 3.15059 2.44852 2.94477 2.42934 2.35348L2.41383 1.87496L1.62684 1.87668C1.06922 1.87789 0.796797 1.89375 0.692109 1.93109ZM0 10.8255C0 14.2793 0.0118359 15.5187 0.0459374 15.6325C0.104102 15.8266 0.352031 16.1103 0.561406 16.2223L0.722656 16.3086H8.71094H16.6992L16.8575 16.2238C17.066 16.1122 17.258 15.9159 17.3477 15.7226C17.417 15.5732 17.4202 15.3617 17.421 10.8691L17.4219 6.17184H8.71094H0V10.8255Z" fill="#FF7043"/>
</svg>
